<svg xmlns="http://www.w3.org/2000/svg" viewBox="0 0 400 400">
  <title>HSV/HSL Hue Wheel</title>
  <circle cx="200" cy="200" r="190" fill="#111" stroke="#333" stroke-width="2" />
  <path d="M200 200 L200 20 A180 180 0 0 1 356 110 Z" fill="#ff1744" opacity="0.9" />
  <path d="M200 200 L356 110 A180 180 0 0 1 356 290 Z" fill="#ffee58" opacity="0.9" />
  <path d="M200 200 L356 290 A180 180 0 0 1 200 380 Z" fill="#00e676" opacity="0.9" />
  <path d="M200 200 L200 380 A180 180 0 0 1 44 290 Z" fill="#18ffff" opacity="0.9" />
  <path d="M200 200 L44 290 A180 180 0 0 1 44 110 Z" fill="#2979ff" opacity="0.9" />
  <path d="M200 200 L44 110 A180 180 0 0 1 200 20 Z" fill="#d500f9" opacity="0.9" />
  <circle cx="200" cy="200" r="70" fill="#000" opacity="0.4" />
  <text x="200" y="205" font-size="20" text-anchor="middle" fill="#f5f5f5" font-family="monospace">Hue</text>
  <text x="200" y="35" font-size="14" text-anchor="middle" fill="#fafafa" font-family="monospace">0°</text>
  <text x="360" y="120" font-size="14" text-anchor="start" fill="#111" font-family="monospace">60°</text>
  <text x="360" y="285" font-size="14" text-anchor="start" fill="#111" font-family="monospace">120°</text>
  <text x="200" y="395" font-size="14" text-anchor="middle" fill="#fafafa" font-family="monospace">180°</text>
  <text x="40" y="285" font-size="14" text-anchor="end" fill="#fafafa" font-family="monospace">240°</text>
  <text x="40" y="115" font-size="14" text-anchor="end" fill="#fafafa" font-family="monospace">300°</text>
  <text x="200" y="370" font-size="12" text-anchor="middle" fill="#fafafa" font-family="monospace">Value ↑ / Saturation →</text>
</svg>
